<svg width="96" height="14" viewBox="0 0 96 14" fill="none" xmlns="http://www.w3.org/2000/svg">
<path d="M2.7 12.28C2.66 12.48 2.54 12.6533 2.34 12.8C2.15333 12.9333 1.88667 13 1.54 13C1.24667 13 1.01333 12.92 0.84 12.76C0.68 12.6 0.593333 12.4333 0.58 12.26C0.66 11.7 0.7 10.86 0.7 9.74C0.7 9.07333 0.66 8.04667 0.58 6.66C0.486667 5.35333 0.44 4.19333 0.44 3.18C0.44 2.63333 0.466667 2.07333 0.52 1.5C0.52 1.31333 0.626667 1.11333 0.84 0.9C1.06667 0.686666 1.37333 0.553333 1.76 0.5C3.02667 0.366666 4.58 0.299999 6.42 0.299999H7.06C7.54 0.299999 8.00667 0.386666 8.46 0.559999C8.92667 0.733333 9.16 1.03333 9.16 1.46C9.16 1.74 9.09333 1.96 8.96 2.12C8.82667 2.28 8.58 2.36 8.22 2.36C8.04667 2.36 7.84667 2.34667 7.62 2.32C7.39333 2.29333 7.23333 2.27333 7.14 2.26C6.63333 2.18 6.24 2.14 5.96 2.14C4.41333 2.14 3.24667 2.24667 2.46 2.46C2.46 2.9 2.47333 3.61333 2.5 4.6L2.52 5.88C3.21333 5.88 3.83333 5.85333 4.38 5.8C4.92667 5.73333 5.24 5.69333 5.32 5.68C6.01333 5.6 6.47333 5.56 6.7 5.56C7.02 5.56 7.28667 5.63333 7.5 5.78C7.72667 5.91333 7.84 6.12667 7.84 6.42C7.84 7.08667 7.37333 7.42 6.44 7.42C6.21333 7.42 6.01333 7.42667 5.84 7.44C5.66667 7.45333 5.52 7.46667 5.4 7.48C4.92 7.53333 4.54 7.56 4.26 7.56C3.64667 7.56 3.12667 7.58 2.7 7.62C2.7 8.11333 2.72 8.63333 2.76 9.18C2.76 9.35333 2.76667 9.62 2.78 9.98C2.80667 10.34 2.82 10.6667 2.82 10.96C2.82 11.2133 2.81333 11.4467 2.8 11.66C2.78667 11.8733 2.75333 12.08 2.7 12.28ZM9.47391 1.34C9.47391 0.766666 9.89391 0.479999 10.7339 0.479999C11.0939 0.479999 11.7806 0.493333 12.7939 0.52C13.9139 0.573333 14.7606 0.6 15.3339 0.6C15.8006 0.6 16.3672 0.573333 17.0339 0.52C17.4872 0.493333 17.7739 0.479999 17.8939 0.479999C18.6272 0.506666 19.2472 0.64 19.7539 0.88C19.9006 0.946666 20.0206 1.02667 20.1139 1.12C20.2072 1.21333 20.2539 1.36667 20.2539 1.58C20.2539 1.87333 20.1606 2.12667 19.9739 2.34C19.7872 2.54 19.5606 2.64 19.2939 2.64C19.0006 2.64 18.5739 2.6 18.0139 2.52C17.5206 2.42667 17.0872 2.38 16.7139 2.38C16.3539 2.38 16.0806 2.38667 15.8939 2.4C15.8539 2.84 15.8339 3.89333 15.8339 5.56C15.8339 7.54667 15.8939 9.56 16.0139 11.6L16.0539 12.18C16.0539 12.7267 15.7406 13 15.1139 13C14.6206 13 14.2872 12.8867 14.1139 12.66C13.9406 12.42 13.8539 12.06 13.8539 11.58C13.8539 10.6333 13.8272 9.45333 13.7739 8.04C13.7206 6.86667 13.6939 6.03333 13.6939 5.54C13.6939 5.20667 13.7339 4.18667 13.8139 2.48L11.4739 2.5C10.7272 2.5 10.2072 2.43333 9.91391 2.3C9.62057 2.15333 9.47391 1.83333 9.47391 1.34ZM24.3048 11.9C24.3048 12.2333 24.1715 12.5467 23.9048 12.84C23.6382 13.12 23.3448 13.26 23.0248 13.26C22.6515 13.26 22.3115 13.16 22.0048 12.96C21.6982 12.7467 21.5448 12.48 21.5448 12.16C21.5448 11.6533 21.6382 11.28 21.8248 11.04C22.0248 10.8 22.3182 10.68 22.7048 10.68C23.1582 10.68 23.5382 10.7933 23.8448 11.02C24.1515 11.2333 24.3048 11.5267 24.3048 11.9ZM31.9139 12.604C31.8919 12.714 31.8259 12.8093 31.7159 12.89C31.6132 12.9633 31.4666 13 31.2759 13C31.1146 13 30.9862 12.956 30.8909 12.868C30.8029 12.78 30.7552 12.6883 30.7479 12.593C30.7919 12.285 30.8139 11.823 30.8139 11.207C30.8139 10.8403 30.7919 10.2757 30.7479 9.513C30.6966 8.79433 30.6709 8.15633 30.6709 7.599C30.6709 7.29833 30.6856 6.99033 30.7149 6.675C30.7149 6.57233 30.7736 6.46233 30.8909 6.345C31.0156 6.22767 31.1842 6.15433 31.3969 6.125C32.0936 6.05167 32.9479 6.015 33.9599 6.015H34.3119C34.5759 6.015 34.8326 6.06267 35.0819 6.158C35.3386 6.25333 35.4669 6.41833 35.4669 6.653C35.4669 6.807 35.4302 6.928 35.3569 7.016C35.2836 7.104 35.1479 7.148 34.9499 7.148C34.8546 7.148 34.7446 7.14067 34.6199 7.126C34.4952 7.11133 34.4072 7.10033 34.3559 7.093C34.0772 7.049 33.8609 7.027 33.7069 7.027C32.8562 7.027 32.2146 7.08567 31.7819 7.203C31.7819 7.445 31.7892 7.83733 31.8039 8.38L31.8149 9.084C32.1962 9.084 32.5372 9.06933 32.8379 9.04C33.1386 9.00333 33.3109 8.98133 33.3549 8.974C33.7362 8.93 33.9892 8.908 34.1139 8.908C34.2899 8.908 34.4366 8.94833 34.5539 9.029C34.6786 9.10233 34.7409 9.21967 34.7409 9.381C34.7409 9.74767 34.4842 9.931 33.9709 9.931C33.8462 9.931 33.7362 9.93467 33.6409 9.942C33.5456 9.94933 33.4649 9.95667 33.3989 9.964C33.1349 9.99333 32.9259 10.008 32.7719 10.008C32.4346 10.008 32.1486 10.019 31.9139 10.041C31.9139 10.3123 31.9249 10.5983 31.9469 10.899C31.9469 10.9943 31.9506 11.141 31.9579 11.339C31.9726 11.537 31.9799 11.7167 31.9799 11.878C31.9799 12.0173 31.9762 12.1457 31.9689 12.263C31.9616 12.3803 31.9432 12.494 31.9139 12.604ZM35.6591 10.668C35.6591 10.3893 35.7104 10.1107 35.8131 9.832C35.9157 9.546 36.0514 9.28567 36.2201 9.051C36.3887 8.81633 36.6564 8.62567 37.0231 8.479C37.3897 8.325 37.7161 8.248 38.0021 8.248C38.2954 8.248 38.5924 8.28833 38.8931 8.369C39.2011 8.44967 39.4137 8.57433 39.5311 8.743C39.8024 9.12433 39.9381 9.49833 39.9381 9.865C39.9381 10.063 39.8941 10.2317 39.8061 10.371C39.7254 10.5103 39.6081 10.6607 39.4541 10.822C39.3294 10.954 39.1314 11.042 38.8601 11.086C38.5961 11.13 38.3321 11.152 38.0681 11.152C37.8994 11.152 37.6941 11.1373 37.4521 11.108C37.2101 11.0713 36.9754 11.0273 36.7481 10.976C36.7627 11.1227 36.7994 11.2657 36.8581 11.405C36.9167 11.5443 36.9864 11.6507 37.0671 11.724C37.2137 11.8633 37.3641 11.9513 37.5181 11.988C37.6794 12.0247 37.8847 12.043 38.1341 12.043C38.3981 12.043 38.6437 11.999 38.8711 11.911C39.0544 11.845 39.2047 11.812 39.3221 11.812C39.4614 11.812 39.5677 11.856 39.6411 11.944C39.7144 12.0247 39.7511 12.131 39.7511 12.263C39.7511 12.4463 39.6447 12.5967 39.4321 12.714C39.2194 12.8313 38.9737 12.9193 38.6951 12.978C38.4237 13.0293 38.2037 13.055 38.0351 13.055C37.6904 13.055 37.3567 12.9927 37.0341 12.868C36.7114 12.7433 36.4437 12.5673 36.2311 12.34C36.0551 12.1347 35.9157 11.889 35.8131 11.603C35.7104 11.3097 35.6591 10.998 35.6591 10.668ZM38.0571 9.183C37.8957 9.183 37.7344 9.216 37.5731 9.282C37.4117 9.34067 37.2797 9.425 37.1771 9.535C37.0451 9.67433 36.9534 9.788 36.9021 9.876C36.8581 9.95667 36.8287 10.0703 36.8141 10.217C36.9974 10.2757 37.3787 10.305 37.9581 10.305C38.2734 10.305 38.5154 10.2573 38.6841 10.162C38.8601 10.0667 38.9481 9.942 38.9481 9.788C38.9481 9.634 38.8527 9.49467 38.6621 9.37C38.4714 9.24533 38.2697 9.183 38.0571 9.183ZM40.8793 10.481C40.8793 10.0337 40.9783 9.66333 41.1763 9.37C41.3743 9.06933 41.6493 8.787 42.0013 8.523C42.1039 8.44967 42.2763 8.38733 42.5183 8.336C42.7603 8.27733 42.9729 8.248 43.1562 8.248C43.3763 8.248 43.6073 8.29567 43.8493 8.391C44.0986 8.479 44.3003 8.58167 44.4543 8.699C44.7256 8.897 44.9126 9.128 45.0153 9.392C45.1179 9.64867 45.1693 9.95667 45.1693 10.316C45.1693 10.47 45.0813 10.6203 44.9053 10.767C44.7366 10.9063 44.5533 10.976 44.3553 10.976L43.9373 10.965C43.7246 10.965 43.4203 10.9723 43.0243 10.987L42.7933 10.998C42.6319 11.0127 42.5109 11.02 42.4303 11.02C42.3129 11.02 42.1516 11.0053 41.9463 10.976C41.9756 11.3207 42.1039 11.592 42.3313 11.79C42.5586 11.9807 42.8043 12.076 43.0683 12.076C43.5303 12.076 43.8529 11.9843 44.0363 11.801C44.1903 11.691 44.2929 11.6213 44.3443 11.592C44.3956 11.5627 44.4763 11.548 44.5863 11.548C44.7036 11.548 44.8063 11.603 44.8943 11.713C44.9823 11.823 45.0263 11.933 45.0263 12.043C45.0263 12.1677 44.9493 12.296 44.7953 12.428C44.6486 12.5527 44.4469 12.6847 44.1903 12.824C44.0509 12.8827 43.8603 12.934 43.6183 12.978C43.3763 13.022 43.1746 13.044 43.0133 13.044C42.7566 13.044 42.4706 12.9707 42.1553 12.824C41.8399 12.67 41.6053 12.5013 41.4513 12.318C41.2973 12.1347 41.1616 11.8743 41.0443 11.537C40.9343 11.1997 40.8793 10.8477 40.8793 10.481ZM43.0683 10.184C43.5889 10.184 43.9703 10.1657 44.2123 10.129C44.1976 9.91633 44.1316 9.744 44.0143 9.612C43.8969 9.47267 43.7356 9.35533 43.5303 9.26C43.4643 9.23067 43.4056 9.20867 43.3543 9.194C43.3029 9.17933 43.2443 9.172 43.1783 9.172C42.8409 9.172 42.5549 9.26367 42.3203 9.447C42.0929 9.63033 41.9573 9.865 41.9133 10.151C42.2799 10.173 42.6649 10.184 43.0683 10.184ZM50.599 6.114C50.599 6.18733 50.5806 6.389 50.544 6.719C50.4633 7.52567 50.423 8.34333 50.423 9.172C50.423 9.898 50.434 10.4517 50.456 10.833C50.478 11.2143 50.533 11.5077 50.621 11.713C50.709 11.911 50.8446 12.01 51.028 12.01C51.38 12.01 51.556 12.1273 51.556 12.362C51.556 12.516 51.479 12.648 51.325 12.758C51.171 12.8607 51.0023 12.912 50.819 12.912C50.599 12.912 50.3936 12.8607 50.203 12.758C50.0123 12.6553 49.862 12.4977 49.752 12.285C49.598 12.5123 49.3743 12.6957 49.081 12.835C48.795 12.967 48.5163 13.033 48.245 13.033C47.827 13.033 47.4566 12.945 47.134 12.769C46.8113 12.593 46.562 12.3547 46.386 12.054C46.21 11.746 46.122 11.4087 46.122 11.042C46.122 10.69 46.1623 10.3527 46.243 10.03C46.331 9.7 46.4483 9.42867 46.595 9.216C46.793 8.93733 47.057 8.71733 47.387 8.556C47.7243 8.38733 48.0543 8.303 48.377 8.303C48.575 8.303 48.762 8.34333 48.938 8.424C49.114 8.49733 49.268 8.589 49.4 8.699C49.4 8.20767 49.3963 7.89967 49.389 7.775V7.544C49.389 6.862 49.433 6.36333 49.521 6.048C49.6016 5.74 49.796 5.586 50.104 5.586C50.2726 5.586 50.3973 5.62267 50.478 5.696C50.5586 5.76933 50.599 5.90867 50.599 6.114ZM47.211 11.02C47.211 11.3573 47.3063 11.6287 47.497 11.834C47.695 12.0393 47.9296 12.142 48.201 12.142C48.5896 12.142 48.8756 12.021 49.059 11.779C49.2496 11.537 49.345 11.2253 49.345 10.844L49.334 9.755C49.048 9.43967 48.751 9.282 48.443 9.282C48.2303 9.282 48.0286 9.337 47.838 9.447C47.6546 9.54967 47.508 9.70733 47.398 9.92C47.2733 10.162 47.211 10.5287 47.211 11.02ZM52.5433 11.02C52.5433 10.6093 52.547 10.2977 52.5543 10.085L52.5653 9.04C52.5653 8.61467 52.5543 8.149 52.5323 7.643C52.525 7.489 52.4993 7.27633 52.4553 7.005C52.3966 6.59433 52.3673 6.28633 52.3673 6.081C52.3673 5.74367 52.536 5.575 52.8733 5.575C53.086 5.575 53.2363 5.63367 53.3243 5.751C53.4196 5.861 53.4856 6.037 53.5223 6.279C53.5956 6.785 53.6323 7.379 53.6323 8.061C53.6323 8.26633 53.625 8.57433 53.6103 8.985C53.7496 8.765 53.9293 8.59267 54.1493 8.468C54.3766 8.34333 54.6003 8.281 54.8203 8.281C55.4583 8.281 56.0083 8.545 56.4703 9.073C56.595 9.25633 56.705 9.47633 56.8003 9.733C56.903 9.98233 56.9543 10.1987 56.9543 10.382C56.9543 10.7047 56.9176 11.0017 56.8443 11.273C56.7783 11.5443 56.6573 11.8083 56.4813 12.065C56.3053 12.3217 56.0816 12.5307 55.8103 12.692C55.5463 12.8533 55.2383 12.934 54.8863 12.934C54.5783 12.934 54.2996 12.8717 54.0503 12.747C53.8083 12.6223 53.614 12.4573 53.4673 12.252C53.4306 12.4353 53.35 12.6187 53.2253 12.802C53.1006 12.978 52.9576 13.066 52.7963 13.066C52.6643 13.066 52.5543 13.033 52.4663 12.967C52.3783 12.8937 52.3343 12.7873 52.3343 12.648C52.3343 12.5453 52.3563 12.417 52.4003 12.263C52.4443 12.0503 52.4773 11.856 52.4993 11.68C52.5286 11.4967 52.5433 11.2767 52.5433 11.02ZM54.6113 12.021C54.9706 12.021 55.2713 11.8963 55.5133 11.647C55.7553 11.3903 55.8763 11.0457 55.8763 10.613C55.8763 10.217 55.77 9.876 55.5573 9.59C55.484 9.49467 55.3776 9.41767 55.2383 9.359C55.1063 9.30033 54.9743 9.271 54.8423 9.271C54.5343 9.271 54.274 9.36267 54.0613 9.546C53.8486 9.722 53.7276 9.96767 53.6983 10.283C53.669 10.7083 53.6543 11.075 53.6543 11.383C53.7423 11.5517 53.8743 11.702 54.0503 11.834C54.2336 11.9587 54.4206 12.021 54.6113 12.021ZM62.9881 12.472C62.9881 12.6333 62.9001 12.769 62.7241 12.879C62.5481 12.989 62.3868 13.044 62.2401 13.044C61.9688 13.044 61.7488 13.011 61.5801 12.945C61.4188 12.8717 61.2648 12.7397 61.1181 12.549C60.9348 12.7177 60.6781 12.846 60.3481 12.934C60.0181 13.0147 59.7138 13.055 59.4351 13.055C58.9805 13.055 58.6028 12.934 58.3021 12.692C58.0088 12.4427 57.8621 12.0797 57.8621 11.603C57.8621 11.3977 57.9245 11.1923 58.0491 10.987C58.1738 10.7743 58.3278 10.6057 58.5111 10.481C58.7091 10.349 58.9328 10.261 59.1821 10.217C59.4315 10.1657 59.7211 10.14 60.0511 10.14C60.2051 10.14 60.3885 10.1693 60.6011 10.228C60.8138 10.2867 60.9825 10.349 61.1071 10.415V10.239C61.1071 9.843 61.0081 9.57167 60.8101 9.425C60.6195 9.271 60.3115 9.194 59.8861 9.194C59.7541 9.194 59.6331 9.216 59.5231 9.26C59.4205 9.29667 59.2995 9.35167 59.1601 9.425C59.0281 9.49833 58.9035 9.535 58.7861 9.535C58.6835 9.535 58.5845 9.49467 58.4891 9.414C58.3938 9.326 58.3461 9.23433 58.3461 9.139C58.3461 8.831 58.5368 8.60733 58.9181 8.468C59.3068 8.32133 59.7028 8.248 60.1061 8.248C60.3115 8.248 60.5461 8.292 60.8101 8.38C61.0741 8.46067 61.2978 8.57433 61.4811 8.721C61.7011 8.90433 61.8698 9.12433 61.9871 9.381C62.1118 9.63767 62.1741 9.91633 62.1741 10.217C62.1741 10.3123 62.1668 10.4553 62.1521 10.646C62.1375 10.8513 62.1301 11.0273 62.1301 11.174L62.1191 11.471C62.1045 11.6323 62.0971 11.7607 62.0971 11.856C62.0971 11.944 62.1265 12.021 62.1851 12.087C62.2511 12.1457 62.3281 12.175 62.4161 12.175L62.7241 12.164C62.8048 12.164 62.8671 12.197 62.9111 12.263C62.9625 12.3217 62.9881 12.3913 62.9881 12.472ZM59.4351 12.186C59.7505 12.186 60.0145 12.153 60.2271 12.087C60.4398 12.021 60.6965 11.9 60.9971 11.724C61.0265 11.5993 61.0448 11.4343 61.0521 11.229C60.6488 11.0383 60.3151 10.943 60.0511 10.943C59.8018 10.943 59.6001 10.954 59.4461 10.976C59.2921 10.9907 59.1528 11.053 59.0281 11.163C58.9035 11.273 58.8411 11.449 58.8411 11.691C58.8411 11.8303 58.9071 11.9477 59.0391 12.043C59.1785 12.1383 59.3105 12.186 59.4351 12.186ZM67.6472 9.326C67.6472 9.48 67.6142 9.59733 67.5482 9.678C67.4896 9.75867 67.3906 9.799 67.2512 9.799C67.1486 9.799 67.0606 9.77333 66.9872 9.722C66.9212 9.67067 66.8332 9.58267 66.7232 9.458C66.6352 9.36267 66.5326 9.28567 66.4152 9.227C66.3052 9.16833 66.2062 9.139 66.1182 9.139C65.6709 9.139 65.3482 9.23433 65.1502 9.425C65.0256 9.557 64.9229 9.733 64.8422 9.953C64.7616 10.1657 64.7212 10.3857 64.7212 10.613C64.7212 10.943 64.7689 11.207 64.8642 11.405C64.9596 11.603 65.1282 11.7717 65.3702 11.911C65.4582 11.9623 65.5829 12.0063 65.7442 12.043C65.9056 12.0723 66.0376 12.087 66.1402 12.087C66.2796 12.087 66.4262 12.0503 66.5802 11.977C66.7342 11.8963 66.8662 11.7937 66.9762 11.669C67.1156 11.5077 67.2842 11.427 67.4822 11.427C67.5629 11.427 67.6546 11.4673 67.7572 11.548C67.8672 11.6287 67.9222 11.724 67.9222 11.834C67.9222 12.054 67.8159 12.2593 67.6032 12.45C67.3979 12.6333 67.1449 12.78 66.8442 12.89C66.5436 12.9927 66.2649 13.044 66.0082 13.044C65.5756 13.044 65.1722 12.945 64.7982 12.747C64.4316 12.549 64.1382 12.2777 63.9182 11.933C63.6982 11.581 63.5882 11.185 63.5882 10.745C63.5882 10.3637 63.6579 9.99333 63.7972 9.634C63.9439 9.27467 64.1382 8.98133 64.3802 8.754C64.5782 8.57067 64.8239 8.435 65.1172 8.347C65.4106 8.259 65.7186 8.215 66.0412 8.215C66.2686 8.215 66.5032 8.259 66.7452 8.347C66.9872 8.435 67.1816 8.55233 67.3282 8.699C67.5409 8.91167 67.6472 9.12067 67.6472 9.326ZM69.7015 13.044C69.5548 13.044 69.4302 13.0183 69.3275 12.967C69.2248 12.9157 69.1625 12.8607 69.1405 12.802C69.0598 12.5087 69.0195 12.1237 69.0195 11.647C69.0195 10.767 69.0342 10.052 69.0635 9.502C69.0928 8.84933 69.1075 8.22233 69.1075 7.621C69.1075 7.445 69.0855 7.18833 69.0415 6.851C69.0342 6.79233 69.0232 6.686 69.0085 6.532C68.9938 6.378 68.9865 6.235 68.9865 6.103C68.9865 5.94167 69.0415 5.81333 69.1515 5.718C69.2688 5.62267 69.4192 5.575 69.6025 5.575C69.7492 5.575 69.8665 5.62267 69.9545 5.718C70.0498 5.806 70.0975 5.927 70.0975 6.081C70.0975 6.31567 70.1048 6.64567 70.1195 7.071C70.1342 7.467 70.1415 7.764 70.1415 7.962C70.1415 8.182 70.1342 8.47533 70.1195 8.842C70.1048 9.062 70.0975 9.22333 70.0975 9.326C70.0975 9.64867 70.1012 9.91633 70.1085 10.129C70.3798 9.85767 70.7355 9.53867 71.1755 9.172C71.6155 8.80533 71.9565 8.54867 72.1985 8.402C72.4552 8.248 72.6238 8.171 72.7045 8.171C72.8585 8.171 72.9905 8.204 73.1005 8.27C73.2105 8.336 73.2655 8.43133 73.2655 8.556C73.2655 8.68067 73.2472 8.77967 73.2105 8.853C73.1738 8.92633 73.1078 8.99967 73.0125 9.073L71.5935 10.107C71.7548 10.1877 71.8905 10.2903 72.0005 10.415C72.1178 10.5397 72.2352 10.6937 72.3525 10.877C72.6018 11.2877 72.7998 11.5883 72.9465 11.779C73.1005 11.9697 73.2398 12.065 73.3645 12.065L73.6395 12.054C73.6908 12.054 73.7348 12.0833 73.7715 12.142C73.8155 12.2007 73.8375 12.285 73.8375 12.395C73.8375 12.5637 73.7532 12.6993 73.5845 12.802C73.4232 12.9047 73.2398 12.956 73.0345 12.956C72.7485 12.956 72.4955 12.846 72.2755 12.626C72.0555 12.3987 71.8465 12.0943 71.6485 11.713C71.3625 11.1703 71.0802 10.8477 70.8015 10.745L70.0975 11.317L70.1415 12.516C70.1415 12.7067 70.0902 12.8423 69.9875 12.923C69.8922 13.0037 69.7968 13.044 69.7015 13.044ZM76.5458 6.587C76.5458 6.27167 76.7768 6.114 77.2388 6.114C77.4368 6.114 77.8145 6.12133 78.3718 6.136C78.9878 6.16533 79.4535 6.18 79.7688 6.18C80.0255 6.18 80.3371 6.16533 80.7038 6.136C80.9531 6.12133 81.1108 6.114 81.1768 6.114C81.5801 6.12867 81.9211 6.202 82.1998 6.334C82.2805 6.37067 82.3465 6.41467 82.3978 6.466C82.4491 6.51733 82.4748 6.60167 82.4748 6.719C82.4748 6.88033 82.4235 7.01967 82.3208 7.137C82.2181 7.247 82.0935 7.302 81.9468 7.302C81.7855 7.302 81.5508 7.28 81.2428 7.236C80.9715 7.18467 80.7331 7.159 80.5278 7.159C80.3298 7.159 80.1795 7.16267 80.0768 7.17C80.0548 7.412 80.0438 7.99133 80.0438 8.908C80.0438 10.0007 80.0768 11.108 80.1428 12.23L80.1648 12.549C80.1648 12.8497 79.9925 13 79.6478 13C79.3765 13 79.1931 12.9377 79.0978 12.813C79.0025 12.681 78.9548 12.483 78.9548 12.219C78.9548 11.6983 78.9401 11.0493 78.9108 10.272C78.8815 9.62667 78.8668 9.16833 78.8668 8.897C78.8668 8.71367 78.8888 8.15267 78.9328 7.214L77.6458 7.225C77.2351 7.225 76.9491 7.18833 76.7878 7.115C76.6265 7.03433 76.5458 6.85833 76.5458 6.587ZM86.4449 9.469C86.5035 9.57167 86.5512 9.722 86.5879 9.92C86.6245 10.1107 86.6429 10.283 86.6429 10.437C86.6429 10.723 86.5805 11.13 86.4559 11.658C85.9499 12.582 85.2019 13.044 84.2119 13.044C83.8452 13.044 83.4712 12.923 83.0899 12.681C82.7085 12.439 82.4445 12.1603 82.2979 11.845C82.0999 11.2143 82.0009 10.8147 82.0009 10.646C82.0009 10.3527 82.0632 10.041 82.1879 9.711C82.3199 9.381 82.4849 9.095 82.6829 8.853C82.8075 8.68433 83.0312 8.54133 83.3539 8.424C83.6765 8.29933 83.9699 8.237 84.2339 8.237C84.7472 8.237 85.1835 8.336 85.5429 8.534C85.9022 8.72467 86.2029 9.03633 86.4449 9.469ZM85.4879 11.24C85.5245 11.1447 85.5429 10.899 85.5429 10.503C85.5429 10.2903 85.5025 10.0813 85.4219 9.876C85.3485 9.67067 85.2385 9.49467 85.0919 9.348C85.0772 9.33333 85.0369 9.31133 84.9709 9.282C84.9049 9.24533 84.8132 9.21233 84.6959 9.183C84.5859 9.14633 84.4575 9.128 84.3109 9.128C83.9002 9.128 83.5995 9.293 83.4089 9.623C83.2182 9.953 83.1229 10.327 83.1229 10.745C83.1229 10.8183 83.1412 10.9577 83.1779 11.163C83.2219 11.3683 83.2585 11.4967 83.2879 11.548C83.3099 11.5993 83.3649 11.6727 83.4529 11.768C83.5482 11.856 83.6619 11.9367 83.7939 12.01C83.9332 12.076 84.0762 12.109 84.2229 12.109C84.5529 12.109 84.8169 12.032 85.0149 11.878C85.2129 11.7167 85.3705 11.504 85.4879 11.24ZM92.0518 9.469C92.1104 9.57167 92.1581 9.722 92.1948 9.92C92.2314 10.1107 92.2498 10.283 92.2498 10.437C92.2498 10.635 92.2278 10.855 92.1838 11.097C92.1398 11.339 92.0994 11.526 92.0628 11.658C91.5568 12.582 90.8088 13.044 89.8188 13.044C89.4521 13.044 89.0781 12.923 88.6968 12.681C88.3154 12.439 88.0514 12.1603 87.9048 11.845C87.7068 11.2217 87.6078 10.822 87.6078 10.646C87.6078 10.3527 87.6701 10.041 87.7948 9.711C87.9268 9.381 88.0918 9.095 88.2898 8.853C88.4218 8.68433 88.6491 8.54133 88.9718 8.424C89.2944 8.29933 89.5878 8.237 89.8518 8.237C90.3651 8.237 90.7978 8.336 91.1498 8.534C91.5091 8.72467 91.8098 9.03633 92.0518 9.469ZM91.0948 11.24C91.1314 11.1667 91.1498 10.921 91.1498 10.503C91.1498 10.2903 91.1094 10.0813 91.0288 9.876C90.9554 9.67067 90.8454 9.49467 90.6988 9.348C90.6841 9.33333 90.6438 9.31133 90.5778 9.282C90.5118 9.24533 90.4201 9.21233 90.3028 9.183C90.1928 9.14633 90.0644 9.128 89.9178 9.128C89.5071 9.128 89.2064 9.293 89.0158 9.623C88.8251 9.953 88.7298 10.327 88.7298 10.745C88.7298 10.811 88.7518 10.9467 88.7958 11.152C88.8398 11.3573 88.8728 11.4893 88.8948 11.548C88.9534 11.6507 89.0708 11.7717 89.2468 11.911C89.4301 12.043 89.6281 12.109 89.8408 12.109C90.1708 12.109 90.4311 12.032 90.6218 11.878C90.8198 11.7167 90.9774 11.504 91.0948 11.24ZM94.5357 11.295C94.5357 11.5737 94.576 11.79 94.6567 11.944C94.7447 12.0907 94.8547 12.164 94.9867 12.164C95.06 12.164 95.1297 12.1603 95.1957 12.153C95.2617 12.1383 95.3277 12.131 95.3937 12.131C95.467 12.131 95.5294 12.1677 95.5807 12.241C95.6394 12.3143 95.6687 12.395 95.6687 12.483C95.6687 12.659 95.5844 12.7983 95.4157 12.901C95.2544 12.9963 95.0344 13.044 94.7557 13.044C94.5577 13.044 94.356 12.9853 94.1507 12.868C93.9527 12.7433 93.7877 12.5527 93.6557 12.296C93.5237 12.032 93.4577 11.7057 93.4577 11.317C93.4577 10.481 93.4724 9.77333 93.5017 9.194C93.5384 8.50467 93.5567 7.63567 93.5567 6.587C93.5567 6.257 93.575 6.026 93.6117 5.894C93.6557 5.79133 93.7254 5.71433 93.8207 5.663C93.9234 5.60433 94.0297 5.575 94.1397 5.575C94.2497 5.575 94.345 5.59333 94.4257 5.63C94.5137 5.66667 94.5724 5.72533 94.6017 5.806C94.631 5.894 94.6494 5.982 94.6567 6.07C94.6714 6.15067 94.6787 6.268 94.6787 6.422C94.6787 6.72267 94.6677 7.01233 94.6457 7.291C94.631 7.62833 94.6237 7.874 94.6237 8.028C94.565 9.31867 94.5357 10.4077 94.5357 11.295Z" fill="#FF5858"/>
</svg>
